<svg width="983" height="417" viewBox="0 0 983 417" fill="none" xmlns="http://www.w3.org/2000/svg">
<path d="M0 105.017L982.32 0V105.017V417H0V105.017Z" fill="#243F5F"/>
<mask id="mask0_1166_379" style="mask-type:alpha" maskUnits="userSpaceOnUse" x="0" y="0" width="983" height="417">
<path d="M0 105.017L982.32 0V105.017V417H0V105.017Z" fill="#243F5F"/>
</mask>
<g mask="url(#mask0_1166_379)">
<path d="M222.309 58.6457V237.993H192.418V58.6457H222.309Z" fill="#FAFBFC"/>
<path d="M162.527 58.6457V237.993H132.635V58.6457H162.527Z" fill="#FAFBFC"/>
<path d="M102.744 58.6457L102.744 237.993H72.8529L72.8529 58.6457H102.744Z" fill="#FAFBFC"/>
<path d="M42.9617 237.993C42.9617 287.518 83.1101 327.667 132.635 327.667V237.993H42.9617Z" fill="#B59963"/>
<path d="M222.309 237.993C222.309 287.518 182.161 327.667 132.635 327.667V237.993H222.309Z" fill="#A27F3C"/>
<path d="M222.309 417.341C222.309 367.815 182.161 327.667 132.635 327.667V417.341H222.309Z" fill="#B59963"/>
<path d="M42.9617 417.341C42.9617 367.815 83.1101 327.667 132.635 327.667V417.341H42.9617Z" fill="#A27F3C"/>
<path fill-rule="evenodd" clip-rule="evenodd" d="M401.657 148.319C401.657 197.845 361.508 237.993 311.983 237.993C262.458 237.993 222.309 197.845 222.309 148.319H267.146C267.146 173.082 287.22 193.156 311.983 193.156C336.746 193.156 356.82 173.082 356.82 148.319H401.657Z" fill="#B59963"/>
<path fill-rule="evenodd" clip-rule="evenodd" d="M401.657 148.319C401.657 98.794 361.508 58.6456 311.983 58.6456C262.458 58.6456 222.309 98.794 222.309 148.319H267.146C267.146 123.557 287.22 103.482 311.983 103.482C336.746 103.482 356.82 123.557 356.82 148.319H401.657Z" fill="#A27F3C"/>
<path d="M222.309 237.993H401.657V297.776H222.309V237.993Z" fill="#FAFBFC"/>
<path d="M222.309 357.559H401.657V417.341H222.309V357.559Z" fill="#FAFBFC"/>
</g>
</svg>
