
<svg width="942" height="203" viewBox="0 0 942 203" fill="none" xmlns="http://www.w3.org/2000/svg">
<circle cx="100.982" cy="101.681" r="100.946" fill="#A27F3C"/>
<path d="M77.3762 98.2056C77.3252 97.6444 77.0981 97.2081 76.695 96.8969C76.2971 96.5805 75.7281 96.4224 74.9883 96.4224C74.4985 96.4224 74.0903 96.4861 73.7637 96.6137C73.4372 96.7413 73.1923 96.9173 73.029 97.1418C72.8657 97.3612 72.7815 97.6138 72.7764 97.8995C72.7662 98.1342 72.8121 98.3408 72.9142 98.5194C73.0213 98.698 73.1744 98.8562 73.3734 98.994C73.5775 99.1266 73.8224 99.244 74.1081 99.346C74.3939 99.4481 74.7153 99.5374 75.0725 99.6139L76.4195 99.92C77.1951 100.088 77.8788 100.313 78.4707 100.594C79.0676 100.874 79.5677 101.208 79.9708 101.596C80.379 101.984 80.6876 102.43 80.8968 102.936C81.106 103.441 81.2132 104.007 81.2183 104.635C81.2132 105.624 80.9632 106.474 80.4682 107.183C79.9733 107.892 79.2615 108.436 78.3329 108.813C77.4094 109.191 76.2945 109.38 74.9883 109.38C73.677 109.38 72.534 109.183 71.5595 108.791C70.5849 108.398 69.8272 107.801 69.2864 107C68.7455 106.199 68.4675 105.186 68.4521 103.961H72.0799C72.1106 104.466 72.2458 104.887 72.4856 105.224C72.7254 105.561 73.0545 105.816 73.4729 105.989C73.8964 106.163 74.3862 106.25 74.9424 106.25C75.4526 106.25 75.8863 106.181 76.2435 106.043C76.6057 105.905 76.8838 105.714 77.0777 105.469C77.2716 105.224 77.3711 104.943 77.3762 104.627C77.3711 104.331 77.2793 104.078 77.1007 103.869C76.9221 103.655 76.6466 103.471 76.2741 103.318C75.9067 103.16 75.4373 103.015 74.8658 102.882L73.228 102.499C71.8707 102.188 70.8018 101.685 70.0211 100.992C69.2405 100.293 68.8527 99.3486 68.8578 98.1597C68.8527 97.1903 69.1129 96.3407 69.6385 95.6111C70.164 94.8814 70.8911 94.3125 71.8197 93.9043C72.7483 93.4961 73.8071 93.292 74.9959 93.292C76.2103 93.292 77.264 93.4987 78.1569 93.912C79.0549 94.3202 79.7514 94.8942 80.2463 95.634C80.7412 96.3739 80.9938 97.2311 81.004 98.2056H77.3762ZM88.6269 109.403C87.3973 109.403 86.336 109.16 85.4431 108.676C84.5552 108.186 83.8715 107.489 83.3919 106.586C82.9174 105.678 82.6801 104.599 82.6801 103.349C82.6801 102.134 82.9199 101.073 83.3996 100.165C83.8792 99.2516 84.5552 98.5424 85.4278 98.0373C86.3003 97.527 87.3284 97.2719 88.5121 97.2719C89.3489 97.2719 90.1143 97.402 90.8082 97.6622C91.5021 97.9225 92.1017 98.3077 92.6068 98.8179C93.1119 99.3282 93.5048 99.9583 93.7854 100.708C94.0661 101.453 94.2064 102.308 94.2064 103.272V104.206H83.9889V102.032H90.724C90.7189 101.634 90.6245 101.28 90.4408 100.969C90.2572 100.657 90.0046 100.415 89.6831 100.241C89.3668 100.063 89.002 99.9736 88.5887 99.9736C88.1703 99.9736 87.7953 100.068 87.4636 100.257C87.1319 100.44 86.8692 100.693 86.6753 101.014C86.4814 101.331 86.3793 101.691 86.3691 102.094V104.306C86.3691 104.785 86.4635 105.206 86.6523 105.568C86.8411 105.926 87.109 106.204 87.4559 106.403C87.8029 106.602 88.2162 106.701 88.6958 106.701C89.0275 106.701 89.3285 106.655 89.5989 106.563C89.8694 106.471 90.1015 106.336 90.2954 106.158C90.4893 105.979 90.6347 105.76 90.7317 105.499L94.1681 105.599C94.0253 106.369 93.7115 107.04 93.2267 107.612C92.7471 108.178 92.117 108.62 91.3363 108.936C90.5556 109.247 89.6525 109.403 88.6269 109.403ZM96.1179 109.181V97.425H99.7533V99.568H99.8758C100.09 98.7924 100.44 98.2158 100.924 97.8383C101.409 97.4556 101.973 97.2642 102.616 97.2642C102.789 97.2642 102.968 97.277 103.151 97.3025C103.335 97.3229 103.506 97.3561 103.664 97.402V100.655C103.486 100.594 103.251 100.545 102.96 100.509C102.674 100.474 102.419 100.456 102.195 100.456C101.751 100.456 101.35 100.555 100.993 100.754C100.641 100.948 100.363 101.221 100.159 101.573C99.96 101.92 99.8605 102.328 99.8605 102.798V109.181H96.1179ZM116.951 97.425L112.917 109.181H108.631L104.606 97.425H108.547L110.713 105.522H110.836L113.009 97.425H116.951ZM123.502 109.403C122.273 109.403 121.211 109.16 120.318 108.676C119.431 108.186 118.747 107.489 118.267 106.586C117.793 105.678 117.555 104.599 117.555 103.349C117.555 102.134 117.795 101.073 118.275 100.165C118.755 99.2516 119.431 98.5424 120.303 98.0373C121.176 97.527 122.204 97.2719 123.388 97.2719C124.224 97.2719 124.99 97.402 125.684 97.6622C126.378 97.9225 126.977 98.3077 127.482 98.8179C127.987 99.3282 128.38 99.9583 128.661 100.708C128.941 101.453 129.082 102.308 129.082 103.272V104.206H118.864V102.032H125.599C125.594 101.634 125.5 101.28 125.316 100.969C125.133 100.657 124.88 100.415 124.559 100.241C124.242 100.063 123.877 99.9736 123.464 99.9736C123.046 99.9736 122.671 100.068 122.339 100.257C122.007 100.44 121.745 100.693 121.551 101.014C121.357 101.331 121.255 101.691 121.245 102.094V104.306C121.245 104.785 121.339 105.206 121.528 105.568C121.716 105.926 121.984 106.204 122.331 106.403C122.678 106.602 123.092 106.701 123.571 106.701C123.903 106.701 124.204 106.655 124.474 106.563C124.745 106.471 124.977 106.336 125.171 106.158C125.365 105.979 125.51 105.76 125.607 105.499L129.043 105.599C128.901 106.369 128.587 107.04 128.102 107.612C127.622 108.178 126.992 108.62 126.212 108.936C125.431 109.247 124.528 109.403 123.502 109.403ZM130.993 109.181V97.425H134.629V99.568H134.751C134.965 98.7924 135.315 98.2158 135.8 97.8383C136.284 97.4556 136.848 97.2642 137.491 97.2642C137.665 97.2642 137.843 97.277 138.027 97.3025C138.211 97.3229 138.381 97.3561 138.54 97.402V100.655C138.361 100.594 138.126 100.545 137.836 100.509C137.55 100.474 137.295 100.456 137.07 100.456C136.626 100.456 136.226 100.555 135.869 100.754C135.517 100.948 135.238 101.221 135.034 101.573C134.835 101.92 134.736 102.328 134.736 102.798V109.181H130.993Z" fill="#F5F6F6"/>
<path d="M243.612 39.735H240.735L244.471 28.663H248.034L251.77 39.735H248.894L246.293 31.4527H246.207L243.612 39.735ZM243.228 35.3776H249.239V37.4104H243.228V35.3776ZM259.66 28.663H262.331V35.8047C262.331 36.6301 262.134 37.3491 261.741 37.9618C261.349 38.5709 260.801 39.043 260.098 39.3782C259.395 39.7098 258.579 39.8756 257.649 39.8756C256.708 39.8756 255.886 39.7098 255.184 39.3782C254.481 39.043 253.935 38.5709 253.546 37.9618C253.156 37.3491 252.962 36.6301 252.962 35.8047V28.663H255.638V35.5722C255.638 35.9543 255.721 36.2949 255.886 36.594C256.056 36.8932 256.292 37.1274 256.595 37.2968C256.897 37.4662 257.249 37.5509 257.649 37.5509C258.049 37.5509 258.399 37.4662 258.698 37.2968C259 37.1274 259.237 36.8932 259.406 36.594C259.575 36.2949 259.66 35.9543 259.66 35.5722V28.663ZM263.646 30.8364V28.663H273.004V30.8364H269.647V39.735H267.009V30.8364H263.646ZM274.311 39.735V28.663H276.987V33.107H281.35V28.663H284.021V39.735H281.35V35.2857H276.987V39.735H274.311ZM285.699 39.735V28.663H293.419V30.8364H288.375V33.107H293.025V35.2857H288.375V37.5617H293.419V39.735H285.699ZM304.518 28.663V39.735H302.248L297.842 33.3449H297.771V39.735H295.095V28.663H297.398L301.756 35.0424H301.848V28.663H304.518ZM305.839 30.8364V28.663H315.197V30.8364H311.84V39.735H309.202V30.8364H305.839ZM319.18 28.663V39.735H316.504V28.663H319.18ZM330.91 32.6745H328.207C328.171 32.397 328.097 32.1465 327.986 31.923C327.874 31.6996 327.726 31.5085 327.542 31.3499C327.359 31.1914 327.14 31.0706 326.888 30.9877C326.639 30.9012 326.364 30.858 326.061 30.858C325.524 30.858 325.061 30.9895 324.672 31.2526C324.286 31.5157 323.989 31.896 323.78 32.3934C323.574 32.8907 323.471 33.4926 323.471 34.199C323.471 34.9343 323.576 35.5506 323.785 36.048C323.998 36.5418 324.295 36.9148 324.677 37.1671C325.063 37.4158 325.519 37.5401 326.045 37.5401C326.34 37.5401 326.609 37.5023 326.85 37.4266C327.095 37.3509 327.31 37.241 327.494 37.0968C327.681 36.949 327.834 36.7706 327.953 36.5616C328.076 36.3489 328.16 36.1093 328.207 35.8425L330.91 35.8588C330.864 36.3489 330.721 36.8319 330.483 37.3076C330.249 37.7834 329.926 38.2177 329.516 38.6105C329.105 38.9998 328.604 39.3098 328.013 39.5404C327.425 39.7711 326.751 39.8864 325.991 39.8864C324.989 39.8864 324.091 39.6666 323.298 39.2269C322.509 38.7835 321.886 38.1384 321.428 37.2914C320.97 36.4444 320.741 35.4136 320.741 34.199C320.741 32.9808 320.974 31.9482 321.439 31.1013C321.904 30.2543 322.533 29.6109 323.325 29.1712C324.118 28.7315 325.007 28.5117 325.991 28.5117C326.661 28.5117 327.281 28.6054 327.85 28.7928C328.42 28.9766 328.921 29.2469 329.353 29.6037C329.786 29.9569 330.137 30.3912 330.408 30.9066C330.678 31.422 330.846 32.0113 330.91 32.6745Z" fill="#A27F3C"/>
<path d="M254.567 69.2053V58.1333H259.141C259.97 58.1333 260.685 58.2955 261.287 58.6199C261.893 58.9406 262.36 59.3894 262.688 59.966C263.015 60.5391 263.179 61.2059 263.179 61.9663C263.179 62.7304 263.012 63.399 262.677 63.9721C262.345 64.5415 261.871 64.983 261.255 65.2966C260.639 65.6102 259.907 65.7669 259.06 65.7669H256.238V63.6585H258.563C258.966 63.6585 259.303 63.5882 259.574 63.4477C259.847 63.3071 260.055 63.1107 260.195 62.8584C260.336 62.6025 260.406 62.3051 260.406 61.9663C260.406 61.624 260.336 61.3284 260.195 61.0797C260.055 60.8274 259.847 60.6328 259.574 60.4958C259.3 60.3589 258.963 60.2904 258.563 60.2904H257.243V69.2053H254.567ZM264.499 69.2053V58.1333H269.072C269.901 58.1333 270.617 58.2829 271.219 58.582C271.824 58.8776 272.291 59.3029 272.619 59.8579C272.947 60.4093 273.111 61.0635 273.111 61.8204C273.111 62.5881 272.943 63.2404 272.608 63.7774C272.273 64.3109 271.797 64.7181 271.181 64.9993C270.564 65.2768 269.835 65.4155 268.991 65.4155H266.099V63.3071H268.494C268.897 63.3071 269.234 63.2548 269.505 63.1503C269.779 63.0422 269.986 62.88 270.127 62.6638C270.267 62.4439 270.337 62.1628 270.337 61.8204C270.337 61.478 270.267 61.1951 270.127 60.9716C269.986 60.7445 269.779 60.5751 269.505 60.4634C269.231 60.3481 268.894 60.2904 268.494 60.2904H267.175V69.2053H264.499ZM270.732 64.1451L273.489 69.2053H270.57L267.867 64.1451H270.732ZM277.255 58.1333V69.2053H274.579V58.1333H277.255ZM281.449 58.1333L283.925 66.2427H284.017L286.493 58.1333H289.488L285.752 69.2053H282.189L278.454 58.1333H281.449ZM291.424 69.2053H288.548L292.284 58.1333H295.847L299.582 69.2053H296.706L294.106 60.9229H294.019L291.424 69.2053ZM291.041 64.8479H297.052V66.8806H291.041V64.8479ZM299.03 60.3066V58.1333H308.388V60.3066H305.031V69.2053H302.392V60.3066H299.03ZM309.695 69.2053V58.1333H317.415V60.3066H312.371V62.5773H317.02V64.756H312.371V67.032H317.415V69.2053H309.695ZM270.174 85.2053H266.082V74.1333H270.169C271.297 74.1333 272.269 74.355 273.083 74.7983C273.901 75.238 274.532 75.8723 274.975 76.7013C275.419 77.5266 275.64 78.5142 275.64 79.6639C275.64 80.8172 275.419 81.8084 274.975 82.6374C274.536 83.4663 273.907 84.1024 273.088 84.5458C272.27 84.9855 271.299 85.2053 270.174 85.2053ZM268.758 82.9239H270.072C270.692 82.9239 271.216 82.8194 271.645 82.6103C272.078 82.3977 272.404 82.0535 272.624 81.5777C272.847 81.0984 272.959 80.4604 272.959 79.6639C272.959 78.8674 272.847 78.2331 272.624 77.7609C272.4 77.2852 272.07 76.9428 271.634 76.7337C271.202 76.5211 270.668 76.4148 270.034 76.4148H268.758V82.9239ZM278.943 85.2053H276.067L279.803 74.1333H283.366L287.101 85.2053H284.225L281.625 76.9229H281.538L278.943 85.2053ZM278.56 80.8479H284.571V82.8806H278.56V80.8479ZM286.549 76.3066V74.1333H295.907V76.3066H292.55V85.2053H289.911V76.3066H286.549ZM298.226 85.2053H295.35L299.086 74.1333H302.649L306.384 85.2053H303.508L300.908 76.9229H300.821L298.226 85.2053ZM297.842 80.8479H303.854V82.8806H297.842V80.8479Z" fill="#243F5F"/>
<path d="M229.318 100.676H334.136C334.284 100.676 334.429 100.714 334.558 100.786L342.225 105.105C342.811 105.435 342.811 106.281 342.225 106.611L334.558 110.929C334.429 111.002 334.284 111.04 334.136 111.04H229.318V100.676Z" fill="#243F5F"/>
<circle cx="471" cy="101.681" r="100.946" fill="#A27F3C"/>
<path d="M456.623 93.5063H460.404V103.617C460.404 104.785 460.126 105.803 459.57 106.67C459.013 107.533 458.238 108.201 457.243 108.676C456.248 109.145 455.092 109.38 453.776 109.38C452.444 109.38 451.281 109.145 450.286 108.676C449.291 108.201 448.518 107.533 447.967 106.67C447.416 105.803 447.14 104.785 447.14 103.617V93.5063H450.929V103.288C450.929 103.828 451.046 104.311 451.281 104.734C451.521 105.158 451.855 105.489 452.283 105.729C452.712 105.969 453.21 106.089 453.776 106.089C454.342 106.089 454.837 105.969 455.261 105.729C455.689 105.489 456.023 105.158 456.263 104.734C456.503 104.311 456.623 103.828 456.623 103.288V93.5063ZM473.042 101.014L469.605 101.106C469.57 100.861 469.473 100.645 469.315 100.456C469.156 100.262 468.95 100.111 468.695 100.004C468.445 99.892 468.154 99.8358 467.822 99.8358C467.388 99.8358 467.018 99.9226 466.712 100.096C466.411 100.27 466.263 100.504 466.268 100.8C466.263 101.03 466.355 101.229 466.544 101.397C466.738 101.566 467.082 101.701 467.577 101.803L469.843 102.231C471.016 102.456 471.889 102.828 472.46 103.349C473.037 103.869 473.328 104.558 473.333 105.415C473.328 106.221 473.088 106.923 472.613 107.52C472.144 108.117 471.501 108.581 470.685 108.913C469.868 109.24 468.934 109.403 467.883 109.403C466.205 109.403 464.881 109.058 463.911 108.37C462.947 107.676 462.396 106.747 462.258 105.584L465.955 105.492C466.036 105.92 466.248 106.247 466.59 106.471C466.932 106.696 467.368 106.808 467.899 106.808C468.378 106.808 468.769 106.719 469.07 106.54C469.371 106.362 469.524 106.125 469.529 105.829C469.524 105.563 469.406 105.352 469.177 105.193C468.947 105.03 468.587 104.903 468.098 104.811L466.046 104.42C464.868 104.206 463.99 103.811 463.414 103.234C462.837 102.652 462.551 101.913 462.556 101.014C462.551 100.229 462.761 99.5578 463.184 99.0016C463.608 98.4403 464.21 98.0117 464.99 97.7158C465.771 97.4199 466.692 97.2719 467.753 97.2719C469.345 97.2719 470.6 97.6061 471.519 98.2745C472.437 98.9378 472.945 99.8512 473.042 101.014ZM480.671 109.403C479.441 109.403 478.38 109.16 477.487 108.676C476.599 108.186 475.915 107.489 475.435 106.586C474.961 105.678 474.724 104.599 474.724 103.349C474.724 102.134 474.964 101.073 475.443 100.165C475.923 99.2516 476.599 98.5424 477.471 98.0373C478.344 97.527 479.372 97.2719 480.556 97.2719C481.393 97.2719 482.158 97.402 482.852 97.6622C483.546 97.9225 484.145 98.3077 484.65 98.8179C485.156 99.3282 485.548 99.9583 485.829 100.708C486.11 101.453 486.25 102.308 486.25 103.272V104.206H476.032V102.032H482.768C482.762 101.634 482.668 101.28 482.484 100.969C482.301 100.657 482.048 100.415 481.727 100.241C481.41 100.063 481.046 99.9736 480.632 99.9736C480.214 99.9736 479.839 100.068 479.507 100.257C479.176 100.44 478.913 100.693 478.719 101.014C478.525 101.331 478.423 101.691 478.413 102.094V104.306C478.413 104.785 478.507 105.206 478.696 105.568C478.885 105.926 479.153 106.204 479.5 106.403C479.846 106.602 480.26 106.701 480.739 106.701C481.071 106.701 481.372 106.655 481.643 106.563C481.913 106.471 482.145 106.336 482.339 106.158C482.533 105.979 482.678 105.76 482.775 105.499L486.212 105.599C486.069 106.369 485.755 107.04 485.27 107.612C484.791 108.178 484.161 108.62 483.38 108.936C482.599 109.247 481.696 109.403 480.671 109.403ZM488.161 109.181V97.425H491.797V99.568H491.919C492.134 98.7924 492.483 98.2158 492.968 97.8383C493.453 97.4556 494.016 97.2642 494.659 97.2642C494.833 97.2642 495.011 97.277 495.195 97.3025C495.379 97.3229 495.55 97.3561 495.708 97.402V100.655C495.529 100.594 495.295 100.545 495.004 100.509C494.718 100.474 494.463 100.456 494.238 100.456C493.794 100.456 493.394 100.555 493.037 100.754C492.685 100.948 492.407 101.221 492.203 101.573C492.004 101.92 491.904 102.328 491.904 102.798V109.181H488.161Z" fill="#F5F6F6"/>
<path d="M613.629 39.735H610.753L614.489 28.663H618.051L621.787 39.735H618.911L616.311 31.4527H616.224L613.629 39.735ZM613.245 35.3776H619.257V37.4104H613.245V35.3776ZM629.678 28.663H632.348V35.8047C632.348 36.6301 632.152 37.3491 631.759 37.9618C631.366 38.5709 630.818 39.043 630.116 39.3782C629.413 39.7098 628.596 39.8756 627.667 39.8756C626.726 39.8756 625.904 39.7098 625.201 39.3782C624.498 39.043 623.952 38.5709 623.563 37.9618C623.174 37.3491 622.979 36.6301 622.979 35.8047V28.663H625.655V35.5722C625.655 35.9543 625.738 36.2949 625.904 36.594C626.073 36.8932 626.31 37.1274 626.612 37.2968C626.915 37.4662 627.266 37.5509 627.667 37.5509C628.067 37.5509 628.416 37.4662 628.715 37.2968C629.018 37.1274 629.254 36.8932 629.424 36.594C629.593 36.2949 629.678 35.9543 629.678 35.5722V28.663ZM633.663 30.8364V28.663H643.022V30.8364H639.664V39.735H637.026V30.8364H633.663ZM644.329 39.735V28.663H647.005V33.107H651.368V28.663H654.038V39.735H651.368V35.2857H647.005V39.735H644.329ZM655.717 39.735V28.663H663.437V30.8364H658.393V33.107H663.042V35.2857H658.393V37.5617H663.437V39.735H655.717ZM674.536 28.663V39.735H672.265L667.859 33.3449H667.789V39.735H665.113V28.663H667.416L671.773 35.0424H671.865V28.663H674.536ZM675.857 30.8364V28.663H685.215V30.8364H681.857V39.735H679.219V30.8364H675.857ZM689.198 28.663V39.735H686.522V28.663H689.198ZM700.928 32.6745H698.225C698.189 32.397 698.115 32.1465 698.003 31.923C697.891 31.6996 697.744 31.5085 697.56 31.3499C697.376 31.1914 697.158 31.0706 696.906 30.9877C696.657 30.9012 696.381 30.858 696.079 30.858C695.542 30.858 695.078 30.9895 694.689 31.2526C694.304 31.5157 694.006 31.896 693.797 32.3934C693.592 32.8907 693.489 33.4926 693.489 34.199C693.489 34.9343 693.594 35.5506 693.803 36.048C694.015 36.5418 694.313 36.9148 694.695 37.1671C695.08 37.4158 695.536 37.5401 696.062 37.5401C696.358 37.5401 696.626 37.5023 696.868 37.4266C697.113 37.3509 697.327 37.241 697.511 37.0968C697.699 36.949 697.852 36.7706 697.971 36.5616C698.093 36.3489 698.178 36.1093 698.225 35.8425L700.928 35.8588C700.881 36.3489 700.739 36.8319 700.501 37.3076C700.267 37.7834 699.944 38.2177 699.533 38.6105C699.122 38.9998 698.621 39.3098 698.03 39.5404C697.443 39.7711 696.769 39.8864 696.008 39.8864C695.006 39.8864 694.109 39.6666 693.316 39.2269C692.527 38.7835 691.903 38.1384 691.445 37.2914C690.988 36.4444 690.759 35.4136 690.759 34.199C690.759 32.9808 690.991 31.9482 691.456 31.1013C691.921 30.2543 692.55 29.6109 693.343 29.1712C694.136 28.7315 695.024 28.5117 696.008 28.5117C696.679 28.5117 697.299 28.6054 697.868 28.7928C698.438 28.9766 698.938 29.2469 699.371 29.6037C699.803 29.9569 700.155 30.3912 700.425 30.9066C700.696 31.422 700.863 32.0113 700.928 32.6745Z" fill="#A27F3C"/>
<path d="M615.063 69.2053V58.1333H619.636C620.465 58.1333 621.181 58.2829 621.783 58.582C622.388 58.8776 622.855 59.3029 623.183 59.8579C623.511 60.4093 623.675 61.0635 623.675 61.8204C623.675 62.5881 623.507 63.2404 623.172 63.7774C622.837 64.3109 622.361 64.7181 621.745 64.9993C621.128 65.2768 620.399 65.4155 619.555 65.4155H616.663V63.3071H619.058C619.461 63.3071 619.798 63.2548 620.069 63.1503C620.343 63.0422 620.55 62.88 620.691 62.6638C620.831 62.4439 620.901 62.1628 620.901 61.8204C620.901 61.478 620.831 61.1951 620.691 60.9716C620.55 60.7445 620.343 60.5751 620.069 60.4634C619.795 60.3481 619.458 60.2904 619.058 60.2904H617.739V69.2053H615.063ZM621.296 64.1451L624.053 69.2053H621.134L618.431 64.1451H621.296ZM625.143 69.2053V58.1333H632.863V60.3066H627.819V62.5773H632.468V64.756H627.819V67.032H632.863V69.2053H625.143ZM638.631 69.2053H634.539V58.1333H638.626C639.754 58.1333 640.725 58.355 641.54 58.7983C642.358 59.238 642.989 59.8723 643.432 60.7013C643.875 61.5266 644.097 62.5142 644.097 63.6639C644.097 64.8172 643.875 65.8084 643.432 66.6374C642.992 67.4663 642.363 68.1024 641.545 68.5458C640.727 68.9855 639.756 69.2053 638.631 69.2053ZM637.215 66.9239H638.528C639.148 66.9239 639.673 66.8194 640.102 66.6103C640.534 66.3977 640.86 66.0535 641.08 65.5777C641.304 65.0984 641.415 64.4604 641.415 63.6639C641.415 62.8674 641.304 62.2331 641.08 61.7609C640.857 61.2852 640.527 60.9428 640.091 60.7337C639.658 60.5211 639.125 60.4148 638.491 60.4148H637.215V66.9239ZM647.4 69.2053H644.524L648.26 58.1333H651.822L655.558 69.2053H652.682L650.082 60.9229H649.995L647.4 69.2053ZM647.016 64.8479H653.028V66.8806H647.016V64.8479ZM666.28 62.1448H663.577C663.541 61.8672 663.467 61.6167 663.355 61.3933C663.244 61.1698 663.096 60.9788 662.912 60.8202C662.728 60.6616 662.51 60.5409 662.258 60.458C662.009 60.3715 661.733 60.3283 661.431 60.3283C660.894 60.3283 660.431 60.4598 660.041 60.7229C659.656 60.986 659.358 61.3663 659.149 61.8636C658.944 62.361 658.841 62.9629 658.841 63.6693C658.841 64.4046 658.946 65.0209 659.155 65.5183C659.367 66.012 659.665 66.3851 660.047 66.6374C660.432 66.886 660.888 67.0104 661.414 67.0104C661.71 67.0104 661.979 66.9725 662.22 66.8969C662.465 66.8212 662.68 66.7112 662.863 66.5671C663.051 66.4193 663.204 66.2409 663.323 66.0319C663.445 65.8192 663.53 65.5795 663.577 65.3128L666.28 65.329C666.233 65.8192 666.091 66.3022 665.853 66.7779C665.619 67.2537 665.296 67.688 664.885 68.0808C664.474 68.4701 663.973 68.78 663.382 69.0107C662.795 69.2414 662.121 69.3567 661.36 69.3567C660.358 69.3567 659.461 69.1368 658.668 68.6971C657.879 68.2538 657.255 67.6087 656.798 66.7617C656.34 65.9147 656.111 64.8839 656.111 63.6693C656.111 62.4511 656.343 61.4185 656.808 60.5715C657.273 59.7246 657.902 59.0812 658.695 58.6415C659.488 58.2018 660.376 57.9819 661.36 57.9819C662.031 57.9819 662.651 58.0756 663.22 58.2631C663.79 58.4469 664.291 58.7172 664.723 59.074C665.156 59.4272 665.507 59.8615 665.777 60.3769C666.048 60.8923 666.215 61.4816 666.28 62.1448ZM667.449 60.3066V58.1333H676.807V60.3066H673.45V69.2053H670.812V60.3066H667.449ZM678.114 69.2053V58.1333H685.835V60.3066H680.79V62.5773H685.44V64.756H680.79V67.032H685.835V69.2053H678.114ZM691.603 69.2053H687.51V58.1333H691.598C692.726 58.1333 693.697 58.355 694.512 58.7983C695.33 59.238 695.96 59.8723 696.404 60.7013C696.847 61.5266 697.069 62.5142 697.069 63.6639C697.069 64.8172 696.847 65.8084 696.404 66.6374C695.964 67.4663 695.335 68.1024 694.517 68.5458C693.699 68.9855 692.727 69.2053 691.603 69.2053ZM690.187 66.9239H691.5C692.12 66.9239 692.645 66.8194 693.073 66.6103C693.506 66.3977 693.832 66.0535 694.052 65.5777C694.275 65.0984 694.387 64.4604 694.387 63.6639C694.387 62.8674 694.275 62.2331 694.052 61.7609C693.829 61.2852 693.499 60.9428 693.063 60.7337C692.63 60.5211 692.097 60.4148 691.462 60.4148H690.187V66.9239ZM640.192 85.2053H636.1V74.1333H640.187C641.315 74.1333 642.286 74.355 643.101 74.7983C643.919 75.238 644.55 75.8723 644.993 76.7013C645.436 77.5266 645.658 78.5142 645.658 79.6639C645.658 80.8172 645.436 81.8084 644.993 82.6374C644.553 83.4663 643.924 84.1024 643.106 84.5458C642.288 84.9855 641.317 85.2053 640.192 85.2053ZM638.776 82.9239H640.089C640.709 82.9239 641.234 82.8194 641.663 82.6103C642.095 82.3977 642.421 82.0535 642.641 81.5777C642.865 81.0984 642.976 80.4604 642.976 79.6639C642.976 78.8674 642.865 78.2331 642.641 77.7609C642.418 77.2852 642.088 76.9428 641.652 76.7337C641.219 76.5211 640.686 76.4148 640.052 76.4148H638.776V82.9239ZM648.961 85.2053H646.085L649.821 74.1333H653.383L657.119 85.2053H654.243L651.643 76.9229H651.556L648.961 85.2053ZM648.577 80.8479H654.589V82.8806H648.577V80.8479ZM656.566 76.3066V74.1333H665.925V76.3066H662.567V85.2053H659.929V76.3066H656.566ZM668.244 85.2053H665.368L669.104 74.1333H672.666L676.402 85.2053H673.526L670.925 76.9229H670.839L668.244 85.2053ZM667.86 80.8479H673.872V82.8806H667.86V80.8479Z" fill="#243F5F"/>
<path d="M599.335 100.676H704.153C704.301 100.676 704.447 100.714 704.576 100.786L712.243 105.105C712.829 105.435 712.829 106.281 712.243 106.611L704.576 110.929C704.447 111.002 704.301 111.04 704.153 111.04H599.335V100.676Z" fill="#243F5F"/>
<circle cx="841.018" cy="101.681" r="100.946" fill="#A27F3C"/>
<path d="M805.731 93.5063L809.236 104.987H809.367L812.872 93.5063H817.112L811.823 109.181H806.78L801.491 93.5063H805.731ZM822.885 109.403C821.655 109.403 820.594 109.16 819.701 108.676C818.813 108.186 818.129 107.489 817.65 106.586C817.175 105.678 816.938 104.599 816.938 103.349C816.938 102.134 817.178 101.073 817.657 100.165C818.137 99.2516 818.813 98.5424 819.685 98.0373C820.558 97.527 821.586 97.2719 822.77 97.2719C823.607 97.2719 824.372 97.402 825.066 97.6622C825.76 97.9225 826.359 98.3077 826.864 98.8179C827.37 99.3282 827.762 99.9583 828.043 100.708C828.324 101.453 828.464 102.308 828.464 103.272V104.206H818.247V102.032H824.982C824.977 101.634 824.882 101.28 824.699 100.969C824.515 100.657 824.262 100.415 823.941 100.241C823.624 100.063 823.26 99.9736 822.846 99.9736C822.428 99.9736 822.053 100.068 821.721 100.257C821.39 100.44 821.127 100.693 820.933 101.014C820.739 101.331 820.637 101.691 820.627 102.094V104.306C820.627 104.785 820.721 105.206 820.91 105.568C821.099 105.926 821.367 106.204 821.714 106.403C822.061 106.602 822.474 106.701 822.953 106.701C823.285 106.701 823.586 106.655 823.857 106.563C824.127 106.471 824.359 106.336 824.553 106.158C824.747 105.979 824.892 105.76 824.989 105.499L828.426 105.599C828.283 106.369 827.969 107.04 827.484 107.612C827.005 108.178 826.375 108.62 825.594 108.936C824.813 109.247 823.91 109.403 822.885 109.403ZM830.376 109.181V97.425H834.011V99.568H834.133C834.348 98.7924 834.697 98.2158 835.182 97.8383C835.667 97.4556 836.231 97.2642 836.873 97.2642C837.047 97.2642 837.225 97.277 837.409 97.3025C837.593 97.3229 837.764 97.3561 837.922 97.402V100.655C837.743 100.594 837.509 100.545 837.218 100.509C836.932 100.474 836.677 100.456 836.452 100.456C836.009 100.456 835.608 100.555 835.251 100.754C834.899 100.948 834.621 101.221 834.417 101.573C834.218 101.92 834.118 102.328 834.118 102.798V109.181H830.376ZM839.447 109.181V97.425H843.19V109.181H839.447ZM841.322 96.055C840.797 96.055 840.345 95.8815 839.967 95.5345C839.59 95.1825 839.401 94.759 839.401 94.2641C839.401 93.7742 839.59 93.3558 839.967 93.0089C840.345 92.6568 840.797 92.4808 841.322 92.4808C841.853 92.4808 842.304 92.6568 842.677 93.0089C843.054 93.3558 843.243 93.7742 843.243 94.2641C843.243 94.759 843.054 95.1825 842.677 95.5345C842.304 95.8815 841.853 96.055 841.322 96.055ZM852.253 97.425V100.18H844.692V97.425H852.253ZM846.268 109.181V96.828C846.268 95.9198 846.439 95.1672 846.781 94.5702C847.123 93.9681 847.597 93.5191 848.205 93.2232C848.812 92.9221 849.513 92.7716 850.309 92.7716C850.83 92.7716 851.32 92.8124 851.779 92.8941C852.243 92.9706 852.587 93.0395 852.812 93.1007L852.215 95.8407C852.077 95.7948 851.909 95.7565 851.71 95.7259C851.516 95.6953 851.332 95.68 851.159 95.68C850.72 95.68 850.419 95.7769 850.256 95.9708C850.092 96.1647 850.011 96.43 850.011 96.7668V109.181H846.268ZM854.054 109.181V97.425H857.796V109.181H854.054ZM855.929 96.055C855.403 96.055 854.952 95.8815 854.574 95.5345C854.197 95.1825 854.008 94.759 854.008 94.2641C854.008 93.7742 854.197 93.3558 854.574 93.0089C854.952 92.6568 855.403 92.4808 855.929 92.4808C856.46 92.4808 856.911 92.6568 857.284 93.0089C857.661 93.3558 857.85 93.7742 857.85 94.2641C857.85 94.759 857.661 95.1825 857.284 95.5345C856.911 95.8815 856.46 96.055 855.929 96.055ZM865.674 109.403C864.444 109.403 863.383 109.16 862.49 108.676C861.602 108.186 860.918 107.489 860.439 106.586C859.964 105.678 859.727 104.599 859.727 103.349C859.727 102.134 859.967 101.073 860.446 100.165C860.926 99.2516 861.602 98.5424 862.475 98.0373C863.347 97.527 864.375 97.2719 865.559 97.2719C866.396 97.2719 867.161 97.402 867.855 97.6622C868.549 97.9225 869.148 98.3077 869.654 98.8179C870.159 99.3282 870.552 99.9583 870.832 100.708C871.113 101.453 871.253 102.308 871.253 103.272V104.206H861.036V102.032H867.771C867.766 101.634 867.671 101.28 867.488 100.969C867.304 100.657 867.051 100.415 866.73 100.241C866.414 100.063 866.049 99.9736 865.636 99.9736C865.217 99.9736 864.842 100.068 864.51 100.257C864.179 100.44 863.916 100.693 863.722 101.014C863.528 101.331 863.426 101.691 863.416 102.094V104.306C863.416 104.785 863.51 105.206 863.699 105.568C863.888 105.926 864.156 106.204 864.503 106.403C864.85 106.602 865.263 106.701 865.743 106.701C866.074 106.701 866.375 106.655 866.646 106.563C866.916 106.471 867.148 106.336 867.342 106.158C867.536 105.979 867.682 105.76 867.779 105.499L871.215 105.599C871.072 106.369 870.758 107.04 870.274 107.612C869.794 108.178 869.164 108.62 868.383 108.936C867.602 109.247 866.699 109.403 865.674 109.403ZM873.165 109.181V97.425H876.8V99.568H876.923C877.137 98.7924 877.486 98.2158 877.971 97.8383C878.456 97.4556 879.02 97.2642 879.663 97.2642C879.836 97.2642 880.015 97.277 880.198 97.3025C880.382 97.3229 880.553 97.3561 880.711 97.402V100.655C880.533 100.594 880.298 100.545 880.007 100.509C879.721 100.474 879.466 100.456 879.242 100.456C878.798 100.456 878.397 100.555 878.04 100.754C877.688 100.948 877.41 101.221 877.206 101.573C877.007 101.92 876.907 102.328 876.907 102.798V109.181H873.165Z" fill="#F5F6F6"/>
</svg>
