<svg width="274" height="179" viewBox="0 0 274 179" fill="none" xmlns="http://www.w3.org/2000/svg">
<circle cx="136.749" cy="44.51" r="44.51" fill="#A27F3C"/>
<path d="M126.99 41.7997H129.557V48.6625C129.557 49.4556 129.368 50.1465 128.99 50.7353C128.613 51.3206 128.086 51.7743 127.411 52.0964C126.736 52.4151 125.951 52.5744 125.058 52.5744C124.154 52.5744 123.364 52.4151 122.689 52.0964C122.013 51.7743 121.489 51.3206 121.115 50.7353C120.741 50.1465 120.554 49.4556 120.554 48.6625V41.7997H123.125V48.4391C123.125 48.8062 123.205 49.1335 123.364 49.421C123.527 49.7084 123.754 49.9335 124.045 50.0963C124.336 50.2591 124.673 50.3405 125.058 50.3405C125.442 50.3405 125.778 50.2591 126.066 50.0963C126.357 49.9335 126.583 49.7084 126.746 49.421C126.909 49.1335 126.99 48.8062 126.99 48.4391V41.7997ZM138.135 46.8961L135.803 46.9585C135.778 46.7922 135.712 46.645 135.605 46.5169C135.498 46.3853 135.357 46.2831 135.184 46.2104C135.015 46.1342 134.817 46.0961 134.592 46.0961C134.298 46.0961 134.047 46.155 133.839 46.2727C133.634 46.3905 133.534 46.5498 133.537 46.7507C133.534 46.9065 133.596 47.0416 133.724 47.1559C133.856 47.2702 134.09 47.362 134.426 47.4312L135.964 47.7222C136.76 47.8745 137.352 48.1274 137.74 48.4806C138.132 48.8339 138.329 49.3015 138.333 49.8833C138.329 50.4305 138.166 50.9068 137.844 51.312C137.526 51.7172 137.089 52.0324 136.535 52.2575C135.981 52.4791 135.347 52.59 134.634 52.59C133.494 52.59 132.595 52.3562 131.937 51.8886C131.283 51.4176 130.909 50.7873 130.815 49.9976L133.324 49.9353C133.38 50.2262 133.524 50.4479 133.756 50.6002C133.988 50.7526 134.284 50.8288 134.644 50.8288C134.97 50.8288 135.235 50.7682 135.439 50.647C135.643 50.5258 135.747 50.3647 135.751 50.1639C135.747 49.9838 135.667 49.84 135.512 49.7327C135.356 49.6218 135.112 49.5352 134.779 49.4729L133.387 49.208C132.587 49.0625 131.991 48.7941 131.6 48.4027C131.208 48.0079 131.014 47.5057 131.018 46.8961C131.014 46.3628 131.156 45.9073 131.444 45.5298C131.731 45.1488 132.14 44.8579 132.67 44.657C133.2 44.4562 133.825 44.3557 134.545 44.3557C135.626 44.3557 136.478 44.5826 137.101 45.0363C137.725 45.4865 138.069 46.1065 138.135 46.8961ZM143.313 52.59C142.479 52.59 141.758 52.4255 141.152 52.0964C140.55 51.7639 140.085 51.2912 139.76 50.6782C139.438 50.0617 139.277 49.3292 139.277 48.4806C139.277 47.6563 139.44 46.936 139.765 46.3195C140.091 45.6995 140.55 45.2181 141.142 44.8752C141.734 44.5289 142.432 44.3557 143.235 44.3557C143.803 44.3557 144.323 44.444 144.794 44.6207C145.265 44.7973 145.672 45.0588 146.015 45.4051C146.358 45.7515 146.624 46.1792 146.815 46.6883C147.005 47.194 147.101 47.7741 147.101 48.4287V49.0625H140.165V47.5871H144.737C144.733 47.3169 144.669 47.0762 144.545 46.865C144.42 46.6537 144.248 46.4892 144.03 46.3714C143.816 46.2502 143.568 46.1896 143.287 46.1896C143.003 46.1896 142.749 46.2537 142.524 46.3818C142.299 46.5065 142.12 46.6779 141.989 46.8961C141.857 47.1109 141.788 47.355 141.781 47.6286V49.13C141.781 49.4556 141.845 49.7413 141.973 49.9872C142.101 50.2297 142.283 50.4184 142.518 50.5535C142.754 50.6886 143.035 50.7561 143.36 50.7561C143.585 50.7561 143.79 50.7249 143.973 50.6626C144.157 50.6002 144.314 50.5085 144.446 50.3872C144.577 50.266 144.676 50.1171 144.742 49.9405L147.075 50.008C146.978 50.531 146.765 50.9864 146.436 51.3743C146.11 51.7587 145.682 52.0583 145.152 52.2731C144.623 52.4843 144.009 52.59 143.313 52.59ZM148.398 52.4393V44.4596H150.866V45.9143H150.949C151.094 45.3878 151.332 44.9965 151.661 44.7402C151.99 44.4804 152.372 44.3505 152.809 44.3505C152.926 44.3505 153.048 44.3592 153.172 44.3765C153.297 44.3904 153.413 44.4129 153.52 44.444V46.652C153.399 46.6104 153.24 46.5775 153.042 46.5533C152.849 46.529 152.675 46.5169 152.523 46.5169C152.222 46.5169 151.95 46.5844 151.707 46.7195C151.468 46.8511 151.28 47.0364 151.141 47.2754C151.006 47.5109 150.938 47.788 150.938 48.1066V52.4393H148.398Z" fill="#F5F6F6"/>
<circle cx="44.51" cy="133.53" r="44.51" fill="#A27F3C"/>
<path d="M26.9149 134.01C26.8803 133.629 26.7261 133.332 26.4525 133.121C26.1824 132.906 25.7962 132.799 25.294 132.799C24.9615 132.799 24.6845 132.842 24.4628 132.929C24.2411 133.016 24.0749 133.135 23.9641 133.287C23.8532 133.436 23.7961 133.608 23.7926 133.802C23.7857 133.961 23.8169 134.101 23.8861 134.223C23.9589 134.344 24.0628 134.451 24.1979 134.545C24.3364 134.635 24.5026 134.714 24.6966 134.784C24.8905 134.853 25.1087 134.913 25.3512 134.965L26.2655 135.173C26.7919 135.288 27.256 135.44 27.6578 135.63C28.063 135.821 28.4024 136.048 28.676 136.311C28.9531 136.574 29.1626 136.877 29.3046 137.22C29.4466 137.563 29.5194 137.947 29.5228 138.373C29.5194 139.045 29.3497 139.622 29.0137 140.103C28.6778 140.585 28.1946 140.954 27.5643 141.21C26.9374 141.466 26.1807 141.594 25.294 141.594C24.4039 141.594 23.6281 141.461 22.9666 141.194C22.3051 140.928 21.7908 140.522 21.4237 139.979C21.0565 139.435 20.8678 138.747 20.8574 137.916H23.3199C23.3407 138.259 23.4324 138.545 23.5952 138.773C23.758 139.002 23.9814 139.175 24.2654 139.293C24.5529 139.411 24.8853 139.47 25.2628 139.47C25.6092 139.47 25.9036 139.423 26.146 139.329C26.3919 139.236 26.5807 139.106 26.7123 138.94C26.8439 138.773 26.9114 138.583 26.9149 138.368C26.9114 138.167 26.8491 137.996 26.7279 137.854C26.6066 137.708 26.4196 137.584 26.1668 137.48C25.9174 137.372 25.5988 137.274 25.2109 137.184L24.0991 136.924C23.1779 136.713 22.4523 136.372 21.9224 135.901C21.3925 135.426 21.1293 134.785 21.1327 133.978C21.1293 133.32 21.3059 132.744 21.6626 132.248C22.0194 131.753 22.5129 131.367 23.1432 131.09C23.7736 130.813 24.4922 130.674 25.2992 130.674C26.1235 130.674 26.8387 130.815 27.4448 131.095C28.0544 131.372 28.5271 131.762 28.8631 132.264C29.199 132.766 29.3704 133.348 29.3774 134.01H26.9149ZM34.5517 141.61C33.717 141.61 32.9966 141.445 32.3905 141.116C31.7879 140.784 31.3238 140.311 30.9982 139.698C30.6761 139.082 30.5151 138.349 30.5151 137.501C30.5151 136.676 30.6779 135.956 31.0034 135.339C31.329 134.72 31.7879 134.238 32.3801 133.895C32.9724 133.549 33.6703 133.376 34.4738 133.376C35.0418 133.376 35.5613 133.464 36.0323 133.641C36.5033 133.817 36.9103 134.079 37.2532 134.425C37.596 134.771 37.8627 135.199 38.0532 135.708C38.2437 136.214 38.3389 136.794 38.3389 137.449V138.082H31.4035V136.607H35.9752C35.9717 136.337 35.9076 136.096 35.7829 135.885C35.6583 135.674 35.4868 135.509 35.2686 135.391C35.0539 135.27 34.8063 135.21 34.5257 135.21C34.2417 135.21 33.9872 135.274 33.762 135.402C33.5369 135.527 33.3586 135.698 33.2269 135.916C33.0953 136.131 33.0261 136.375 33.0191 136.649V138.15C33.0191 138.476 33.0832 138.761 33.2114 139.007C33.3395 139.25 33.5213 139.438 33.7568 139.573C33.9924 139.709 34.2729 139.776 34.5985 139.776C34.8236 139.776 35.0279 139.745 35.2115 139.683C35.395 139.62 35.5526 139.528 35.6842 139.407C35.8158 139.286 35.9145 139.137 35.9804 138.96L38.313 139.028C38.216 139.551 38.003 140.006 37.674 140.394C37.3484 140.779 36.9207 141.078 36.3908 141.293C35.8609 141.504 35.2478 141.61 34.5517 141.61ZM39.6364 141.459V133.48H42.1041V134.934H42.1872C42.3327 134.408 42.5699 134.016 42.8989 133.76C43.228 133.5 43.6107 133.371 44.0471 133.371C44.1648 133.371 44.286 133.379 44.4107 133.397C44.5354 133.41 44.6514 133.433 44.7588 133.464V135.672C44.6376 135.63 44.4782 135.598 44.2808 135.573C44.0869 135.549 43.9137 135.537 43.7613 135.537C43.46 135.537 43.1881 135.604 42.9457 135.74C42.7067 135.871 42.518 136.056 42.3794 136.295C42.2443 136.531 42.1768 136.808 42.1768 137.127V141.459H39.6364ZM53.7775 133.48L51.0397 141.459H48.1304L45.3978 133.48H48.0733L49.5435 138.976H49.6266L51.102 133.48H53.7775ZM58.2245 141.61C57.3898 141.61 56.6694 141.445 56.0633 141.116C55.4607 140.784 54.9966 140.311 54.671 139.698C54.3489 139.082 54.1879 138.349 54.1879 137.501C54.1879 136.676 54.3507 135.956 54.6762 135.339C55.0018 134.72 55.4607 134.238 56.0529 133.895C56.6452 133.549 57.3431 133.376 58.1466 133.376C58.7146 133.376 59.2341 133.464 59.7051 133.641C60.1761 133.817 60.5831 134.079 60.9259 134.425C61.2688 134.771 61.5355 135.199 61.726 135.708C61.9165 136.214 62.0117 136.794 62.0117 137.449V138.082H55.0763V136.607H59.6479C59.6445 136.337 59.5804 136.096 59.4557 135.885C59.331 135.674 59.1596 135.509 58.9414 135.391C58.7267 135.27 58.4791 135.21 58.1985 135.21C57.9145 135.21 57.66 135.274 57.4348 135.402C57.2097 135.527 57.0313 135.698 56.8997 135.916C56.7681 136.131 56.6989 136.375 56.6919 136.649V138.15C56.6919 138.476 56.756 138.761 56.8842 139.007C57.0123 139.25 57.1941 139.438 57.4296 139.573C57.6652 139.709 57.9457 139.776 58.2712 139.776C58.4964 139.776 58.7007 139.745 58.8843 139.683C59.0678 139.62 59.2254 139.528 59.357 139.407C59.4886 139.286 59.5873 139.137 59.6531 138.96L61.9857 139.028C61.8888 139.551 61.6758 140.006 61.3467 140.394C61.0212 140.779 60.5935 141.078 60.0636 141.293C59.5337 141.504 58.9206 141.61 58.2245 141.61ZM63.3092 141.459V133.48H65.7769V134.934H65.86C66.0055 134.408 66.2427 134.016 66.5717 133.76C66.9008 133.5 67.2835 133.371 67.7198 133.371C67.8376 133.371 67.9588 133.379 68.0835 133.397C68.2082 133.41 68.3242 133.433 68.4316 133.464V135.672C68.3104 135.63 68.151 135.598 67.9536 135.573C67.7597 135.549 67.5865 135.537 67.4341 135.537C67.1328 135.537 66.8609 135.604 66.6185 135.74C66.3795 135.871 66.1908 136.056 66.0522 136.295C65.9171 136.531 65.8496 136.808 65.8496 137.127V141.459H63.3092Z" fill="#F5F6F6"/>
<circle cx="228.783" cy="133.53" r="44.51" fill="#A27F3C"/>
<path d="M204.831 130.82L207.21 138.612H207.299L209.678 130.82H212.556L208.966 141.459H205.543L201.953 130.82H204.831ZM216.474 141.61C215.64 141.61 214.919 141.445 214.313 141.116C213.711 140.784 213.247 140.311 212.921 139.698C212.599 139.082 212.438 138.349 212.438 137.501C212.438 136.676 212.601 135.956 212.926 135.339C213.252 134.72 213.711 134.238 214.303 133.895C214.895 133.549 215.593 133.376 216.397 133.376C216.965 133.376 217.484 133.464 217.955 133.641C218.426 133.817 218.833 134.079 219.176 134.425C219.519 134.771 219.785 135.199 219.976 135.708C220.166 136.214 220.262 136.794 220.262 137.449V138.082H213.326V136.607H217.898C217.894 136.337 217.83 136.096 217.706 135.885C217.581 135.674 217.41 135.509 217.191 135.391C216.977 135.27 216.729 135.21 216.448 135.21C216.164 135.21 215.91 135.274 215.685 135.402C215.46 135.527 215.281 135.698 215.15 135.916C215.018 136.131 214.949 136.375 214.942 136.649V138.15C214.942 138.476 215.006 138.761 215.134 139.007C215.262 139.25 215.444 139.438 215.68 139.573C215.915 139.709 216.196 139.776 216.521 139.776C216.746 139.776 216.951 139.745 217.134 139.683C217.318 139.62 217.475 139.528 217.607 139.407C217.739 139.286 217.837 139.137 217.903 138.96L220.236 139.028C220.139 139.551 219.926 140.006 219.597 140.394C219.271 140.779 218.843 141.078 218.314 141.293C217.784 141.504 217.171 141.61 216.474 141.61ZM221.559 141.459V133.48H224.027V134.934H224.11C224.255 134.408 224.493 134.016 224.822 133.76C225.151 133.5 225.533 133.371 225.97 133.371C226.088 133.371 226.209 133.379 226.333 133.397C226.458 133.41 226.574 133.433 226.682 133.464V135.672C226.56 135.63 226.401 135.598 226.204 135.573C226.01 135.549 225.836 135.537 225.684 135.537C225.383 135.537 225.111 135.604 224.868 135.74C224.629 135.871 224.441 136.056 224.302 136.295C224.167 136.531 224.1 136.808 224.1 137.127V141.459H221.559ZM227.717 141.459V133.48H230.257V141.459H227.717ZM228.989 132.55C228.633 132.55 228.326 132.432 228.07 132.196C227.814 131.957 227.685 131.67 227.685 131.334C227.685 131.002 227.814 130.718 228.07 130.482C228.326 130.243 228.633 130.124 228.989 130.124C229.35 130.124 229.656 130.243 229.909 130.482C230.165 130.718 230.293 131.002 230.293 131.334C230.293 131.67 230.165 131.957 229.909 132.196C229.656 132.432 229.35 132.55 228.989 132.55ZM236.409 133.48V135.35H231.277V133.48H236.409ZM232.347 141.459V133.074C232.347 132.458 232.463 131.947 232.695 131.542C232.927 131.133 233.249 130.828 233.661 130.628C234.073 130.423 234.55 130.321 235.09 130.321C235.443 130.321 235.776 130.349 236.087 130.404C236.402 130.456 236.636 130.503 236.789 130.544L236.383 132.404C236.29 132.373 236.176 132.347 236.041 132.326C235.909 132.306 235.784 132.295 235.666 132.295C235.369 132.295 235.164 132.361 235.053 132.493C234.943 132.624 234.887 132.804 234.887 133.033V141.459H232.347ZM237.632 141.459V133.48H240.172V141.459H237.632ZM238.904 132.55C238.548 132.55 238.241 132.432 237.985 132.196C237.728 131.957 237.6 131.67 237.6 131.334C237.6 131.002 237.728 130.718 237.985 130.482C238.241 130.243 238.548 130.124 238.904 130.124C239.265 130.124 239.571 130.243 239.824 130.482C240.08 130.718 240.208 131.002 240.208 131.334C240.208 131.67 240.08 131.957 239.824 132.196C239.571 132.432 239.265 132.55 238.904 132.55ZM245.519 141.61C244.684 141.61 243.964 141.445 243.358 141.116C242.755 140.784 242.291 140.311 241.966 139.698C241.643 139.082 241.482 138.349 241.482 137.501C241.482 136.676 241.645 135.956 241.971 135.339C242.296 134.72 242.755 134.238 243.347 133.895C243.94 133.549 244.638 133.376 245.441 133.376C246.009 133.376 246.529 133.464 247 133.641C247.471 133.817 247.878 134.079 248.22 134.425C248.563 134.771 248.83 135.199 249.02 135.708C249.211 136.214 249.306 136.794 249.306 137.449V138.082H242.371V136.607H246.942C246.939 136.337 246.875 136.096 246.75 135.885C246.626 135.674 246.454 135.509 246.236 135.391C246.021 135.27 245.774 135.21 245.493 135.21C245.209 135.21 244.954 135.274 244.729 135.402C244.504 135.527 244.326 135.698 244.194 135.916C244.063 136.131 243.993 136.375 243.986 136.649V138.15C243.986 138.476 244.051 138.761 244.179 139.007C244.307 139.25 244.489 139.438 244.724 139.573C244.96 139.709 245.24 139.776 245.566 139.776C245.791 139.776 245.995 139.745 246.179 139.683C246.362 139.62 246.52 139.528 246.652 139.407C246.783 139.286 246.882 139.137 246.948 138.96L249.28 139.028C249.183 139.551 248.97 140.006 248.641 140.394C248.316 140.779 247.888 141.078 247.358 141.293C246.828 141.504 246.215 141.61 245.519 141.61ZM250.604 141.459V133.48H253.071V134.934H253.154C253.3 134.408 253.537 134.016 253.866 133.76C254.195 133.5 254.578 133.371 255.014 133.371C255.132 133.371 255.253 133.379 255.378 133.397C255.503 133.41 255.619 133.433 255.726 133.464V135.672C255.605 135.63 255.446 135.598 255.248 135.573C255.054 135.549 254.881 135.537 254.729 135.537C254.427 135.537 254.155 135.604 253.913 135.74C253.674 135.871 253.485 136.056 253.347 136.295C253.212 136.531 253.144 136.808 253.144 137.127V141.459H250.604Z" fill="#F5F6F6"/>
<path d="M29.5893 54.3655H27.8587L30.1066 47.7032H32.2504L34.4983 54.3655H32.7676L31.2029 49.3818H31.1508L29.5893 54.3655ZM29.3584 51.7435H32.9758V52.9667H29.3584V51.7435ZM39.2461 47.7032H40.8532V52.0005C40.8532 52.4971 40.735 52.9298 40.4986 53.2985C40.2622 53.665 39.9325 53.9491 39.5096 54.1508C39.0867 54.3503 38.5955 54.4501 38.036 54.4501C37.47 54.4501 36.9755 54.3503 36.5526 54.1508C36.1297 53.9491 35.8011 53.665 35.5669 53.2985C35.3327 52.9298 35.2156 52.4971 35.2156 52.0005V47.7032H36.8258V51.8606C36.8258 52.0905 36.8757 52.2954 36.9755 52.4755C37.0774 52.6555 37.2195 52.7964 37.4016 52.8984C37.5838 53.0003 37.7953 53.0513 38.036 53.0513C38.2767 53.0513 38.4871 53.0003 38.6671 52.8984C38.8493 52.7964 38.9913 52.6555 39.0932 52.4755C39.1952 52.2954 39.2461 52.0905 39.2461 51.8606V47.7032ZM41.6445 49.0109V47.7032H47.2756V49.0109H45.2554V54.3655H43.6679V49.0109H41.6445ZM48.062 54.3655V47.7032H49.6723V50.3772H52.2976V47.7032H53.9046V54.3655H52.2976V51.6882H49.6723V54.3655H48.062ZM54.9147 54.3655V47.7032H59.5601V49.0109H56.5249V50.3772H59.3226V51.6882H56.5249V53.0578H59.5601V54.3655H54.9147ZM66.2387 47.7032V54.3655H64.8724L62.2211 50.5203H62.1788V54.3655H60.5685V47.7032H61.9544L64.5763 51.5418H64.6317V47.7032H66.2387ZM67.0333 49.0109V47.7032H72.6644V49.0109H70.6442V54.3655H69.0567V49.0109H67.0333ZM75.0611 47.7032V54.3655H73.4508V47.7032H75.0611ZM82.1195 50.117H80.4929C80.4712 49.95 80.4268 49.7992 80.3595 49.6648C80.2923 49.5303 80.2034 49.4154 80.0928 49.32C79.9822 49.2245 79.851 49.1519 79.6992 49.102C79.5495 49.0499 79.3836 49.0239 79.2014 49.0239C78.8783 49.0239 78.5996 49.1031 78.3654 49.2614C78.1333 49.4197 77.9544 49.6485 77.8286 49.9478C77.705 50.2471 77.6432 50.6093 77.6432 51.0343C77.6432 51.4768 77.7061 51.8476 77.8319 52.1469C77.9598 52.444 78.1388 52.6685 78.3687 52.8203C78.6007 52.9699 78.8751 53.0447 79.1917 53.0447C79.3695 53.0447 79.5311 53.022 79.6764 52.9764C79.8239 52.9309 79.9529 52.8647 80.0635 52.778C80.1763 52.6891 80.2685 52.5817 80.34 52.4559C80.4138 52.328 80.4647 52.1838 80.4929 52.0233L82.1195 52.033C82.0913 52.328 82.0056 52.6186 81.8625 52.9049C81.7215 53.1911 81.5274 53.4525 81.2802 53.6889C81.0329 53.9231 80.7315 54.1096 80.3758 54.2484C80.0223 54.3872 79.6168 54.4566 79.1592 54.4566C78.5562 54.4566 78.0162 54.3243 77.5391 54.0597C77.0642 53.793 76.689 53.4048 76.4135 52.8951C76.1381 52.3855 76.0004 51.7652 76.0004 51.0343C76.0004 50.3013 76.1403 49.68 76.4201 49.1703C76.6998 48.6607 77.0783 48.2735 77.5554 48.009C78.0325 47.7444 78.5671 47.6121 79.1592 47.6121C79.5625 47.6121 79.9356 47.6685 80.2782 47.7812C80.6209 47.8918 80.9223 48.0545 81.1826 48.2692C81.4428 48.4817 81.6543 48.7431 81.8169 49.0532C81.9796 49.3633 82.0804 49.7179 82.1195 50.117Z" fill="#A27F3C"/>
<path d="M36.1818 72.4709V65.8086H38.9339C39.4327 65.8086 39.8632 65.9062 40.2254 66.1014C40.5898 66.2944 40.8706 66.5644 41.068 66.9114C41.2653 67.2562 41.364 67.6574 41.364 68.115C41.364 68.5748 41.2631 68.9771 41.0615 69.3219C40.8619 69.6646 40.5767 69.9303 40.2059 70.119C39.835 70.3076 39.3948 70.402 38.8851 70.402H37.187V69.1333H38.5859C38.8288 69.1333 39.0315 69.091 39.1942 69.0064C39.359 68.9218 39.4837 68.8036 39.5683 68.6518C39.6529 68.4978 39.6952 68.3189 39.6952 68.115C39.6952 67.909 39.6529 67.7312 39.5683 67.5815C39.4837 67.4297 39.359 67.3126 39.1942 67.2302C39.0294 67.1478 38.8266 67.1066 38.5859 67.1066H37.7921V72.4709H36.1818ZM42.1578 72.4709V65.8086H44.9099C45.4087 65.8086 45.8392 65.8986 46.2013 66.0786C46.5657 66.2564 46.8465 66.5124 47.0439 66.8463C47.2412 67.1782 47.3399 67.5718 47.3399 68.0272C47.3399 68.4892 47.2391 68.8817 47.0374 69.2048C46.8357 69.5258 46.5494 69.7709 46.1786 69.94C45.8077 70.107 45.3686 70.1905 44.8611 70.1905H43.1207V68.9218H44.5618C44.8047 68.9218 45.0075 68.8904 45.1701 68.8275C45.3349 68.7624 45.4596 68.6648 45.5442 68.5347C45.6288 68.4024 45.6711 68.2332 45.6711 68.0272C45.6711 67.8212 45.6288 67.6509 45.5442 67.5165C45.4596 67.3798 45.3349 67.2779 45.1701 67.2107C45.0053 67.1413 44.8025 67.1066 44.5618 67.1066H43.768V72.4709H42.1578ZM45.9086 69.426L47.5676 72.4709H45.811L44.1844 69.426H45.9086ZM49.8334 65.8086V72.4709H48.2231V65.8086H49.8334ZM52.357 65.8086L53.8469 70.6882H53.9022L55.3921 65.8086H57.1944L54.9465 72.4709H52.8027L50.5548 65.8086H52.357ZM58.3598 72.4709H56.6291L58.877 65.8086H61.0208L63.2687 72.4709H61.5381L59.9733 67.4872H59.9213L58.3598 72.4709ZM58.1288 69.8489H61.7462V71.0721H58.1288V69.8489ZM62.9361 67.1163V65.8086H68.5672V67.1163H66.547V72.4709H64.9595V67.1163H62.9361ZM69.3536 72.4709V65.8086H73.999V67.1163H70.9639V68.4826H73.7615V69.7936H70.9639V71.1632H73.999V72.4709H69.3536ZM45.5731 82.4709H43.1105V75.8086H45.5698C46.2487 75.8086 46.8331 75.942 47.3233 76.2087C47.8156 76.4733 48.1951 76.855 48.4618 77.3538C48.7286 77.8505 48.862 78.4447 48.862 79.1365C48.862 79.8305 48.7286 80.4269 48.4618 80.9257C48.1973 81.4245 47.8188 81.8073 47.3265 82.0741C46.8342 82.3386 46.2497 82.4709 45.5731 82.4709ZM44.7208 81.0981H45.5113C45.8843 81.0981 46.1999 81.0352 46.4579 80.9095C46.7182 80.7815 46.9145 80.5744 47.0467 80.2881C47.1812 79.9997 47.2484 79.6158 47.2484 79.1365C47.2484 78.6572 47.1812 78.2755 47.0467 77.9914C46.9123 77.7052 46.7138 77.4991 46.4514 77.3733C46.1912 77.2454 45.8702 77.1814 45.4885 77.1814H44.7208V81.0981ZM50.8496 82.4709H49.119L51.3669 75.8086H53.5106L55.7585 82.4709H54.0279L52.4631 77.4872H52.4111L50.8496 82.4709ZM50.6186 79.8489H54.2361V81.0721H50.6186V79.8489ZM55.4259 77.1163V75.8086H61.057V77.1163H59.0368V82.4709H57.4493V77.1163H55.4259ZM62.4526 82.4709H60.7219L62.9698 75.8086H65.1136L67.3615 82.4709H65.6309L64.0661 77.4872H64.0141L62.4526 82.4709ZM62.2216 79.8489H65.839V81.0721H62.2216V79.8489Z" fill="#243F5F"/>
<path d="M192.907 54.3655H191.177L193.425 47.7032H195.568L197.816 54.3655H196.086L194.521 49.3818H194.469L192.907 54.3655ZM192.676 51.7435H196.294V52.9667H192.676V51.7435ZM202.564 47.7032H204.171V52.0005C204.171 52.4971 204.053 52.9298 203.817 53.2985C203.58 53.665 203.25 53.9491 202.828 54.1508C202.405 54.3503 201.913 54.4501 201.354 54.4501C200.788 54.4501 200.293 54.3503 199.871 54.1508C199.448 53.9491 199.119 53.665 198.885 53.2985C198.651 52.9298 198.533 52.4971 198.533 52.0005V47.7032H200.144V51.8606C200.144 52.0905 200.194 52.2954 200.293 52.4755C200.395 52.6555 200.537 52.7964 200.72 52.8984C200.902 53.0003 201.113 53.0513 201.354 53.0513C201.595 53.0513 201.805 53.0003 201.985 52.8984C202.167 52.7964 202.309 52.6555 202.411 52.4755C202.513 52.2954 202.564 52.0905 202.564 51.8606V47.7032ZM204.962 49.0109V47.7032H210.594V49.0109H208.573V54.3655H206.986V49.0109H204.962ZM211.38 54.3655V47.7032H212.99V50.3772H215.615V47.7032H217.223V54.3655H215.615V51.6882H212.99V54.3655H211.38ZM218.233 54.3655V47.7032H222.878V49.0109H219.843V50.3772H222.641V51.6882H219.843V53.0578H222.878V54.3655H218.233ZM229.557 47.7032V54.3655H228.19L225.539 50.5203H225.497V54.3655H223.886V47.7032H225.272L227.894 51.5418H227.95V47.7032H229.557ZM230.351 49.0109V47.7032H235.982V49.0109H233.962V54.3655H232.375V49.0109H230.351ZM238.379 47.7032V54.3655H236.769V47.7032H238.379ZM245.437 50.117H243.811C243.789 49.95 243.745 49.7992 243.677 49.6648C243.61 49.5303 243.521 49.4154 243.411 49.32C243.3 49.2245 243.169 49.1519 243.017 49.102C242.867 49.0499 242.702 49.0239 242.519 49.0239C242.196 49.0239 241.918 49.1031 241.683 49.2614C241.451 49.4197 241.272 49.6485 241.147 49.9478C241.023 50.2471 240.961 50.6093 240.961 51.0343C240.961 51.4768 241.024 51.8476 241.15 52.1469C241.278 52.444 241.457 52.6685 241.687 52.8203C241.919 52.9699 242.193 53.0447 242.51 53.0447C242.687 53.0447 242.849 53.022 242.994 52.9764C243.142 52.9309 243.271 52.8647 243.381 52.778C243.494 52.6891 243.586 52.5817 243.658 52.4559C243.732 52.328 243.783 52.1838 243.811 52.0233L245.437 52.033C245.409 52.328 245.324 52.6186 245.18 52.9049C245.039 53.1911 244.845 53.4525 244.598 53.6889C244.351 53.9231 244.049 54.1096 243.694 54.2484C243.34 54.3872 242.935 54.4566 242.477 54.4566C241.874 54.4566 241.334 54.3243 240.857 54.0597C240.382 53.793 240.007 53.4048 239.731 52.8951C239.456 52.3855 239.318 51.7652 239.318 51.0343C239.318 50.3013 239.458 49.68 239.738 49.1703C240.018 48.6607 240.396 48.2735 240.873 48.009C241.35 47.7444 241.885 47.6121 242.477 47.6121C242.88 47.6121 243.253 47.6685 243.596 47.7812C243.939 47.8918 244.24 48.0545 244.501 48.2692C244.761 48.4817 244.972 48.7431 245.135 49.0532C245.298 49.3633 245.398 49.7179 245.437 50.117Z" fill="#A27F3C"/>
<path d="M193.77 72.4709V65.8086H196.522C197.021 65.8086 197.451 65.8986 197.813 66.0786C198.178 66.2564 198.459 66.5124 198.656 66.8463C198.853 67.1782 198.952 67.5718 198.952 68.0272C198.952 68.4892 198.851 68.8817 198.649 69.2048C198.448 69.5258 198.161 69.7709 197.791 69.94C197.42 70.107 196.981 70.1905 196.473 70.1905H194.733V68.9218H196.174C196.417 68.9218 196.619 68.8904 196.782 68.8275C196.947 68.7624 197.072 68.6648 197.156 68.5347C197.241 68.4024 197.283 68.2332 197.283 68.0272C197.283 67.8212 197.241 67.6509 197.156 67.5165C197.072 67.3798 196.947 67.2779 196.782 67.2107C196.617 67.1413 196.415 67.1066 196.174 67.1066H195.38V72.4709H193.77ZM197.521 69.426L199.18 72.4709H197.423L195.796 69.426H197.521ZM199.835 72.4709V65.8086H204.481V67.1163H201.445V68.4826H204.243V69.7936H201.445V71.1632H204.481V72.4709H199.835ZM207.952 72.4709H205.489V65.8086H207.948C208.627 65.8086 209.212 65.942 209.702 66.2087C210.194 66.4733 210.574 66.855 210.84 67.3538C211.107 67.8505 211.24 68.4447 211.24 69.1365C211.24 69.8305 211.107 70.4269 210.84 70.9257C210.576 71.4245 210.197 71.8073 209.705 72.0741C209.213 72.3386 208.628 72.4709 207.952 72.4709ZM207.099 71.0981H207.89C208.263 71.0981 208.578 71.0352 208.836 70.9095C209.097 70.7815 209.293 70.5744 209.425 70.2881C209.56 69.9997 209.627 69.6158 209.627 69.1365C209.627 68.6572 209.56 68.2755 209.425 67.9914C209.291 67.7052 209.092 67.4991 208.83 67.3733C208.57 67.2454 208.249 67.1814 207.867 67.1814H207.099V71.0981ZM213.228 72.4709H211.497L213.745 65.8086H215.889L218.137 72.4709H216.406L214.842 67.4872H214.79L213.228 72.4709ZM212.997 69.8489H216.615V71.0721H212.997V69.8489ZM224.589 68.2224H222.962C222.94 68.0554 222.896 67.9047 222.829 67.7702C222.762 67.6358 222.673 67.5208 222.562 67.4254C222.451 67.33 222.32 67.2573 222.168 67.2074C222.019 67.1554 221.853 67.1294 221.671 67.1294C221.348 67.1294 221.069 67.2085 220.835 67.3668C220.603 67.5252 220.424 67.754 220.298 68.0532C220.174 68.3525 220.112 68.7147 220.112 69.1398C220.112 69.5822 220.175 69.953 220.301 70.2523C220.429 70.5494 220.608 70.7739 220.838 70.9257C221.07 71.0754 221.344 71.1502 221.661 71.1502C221.839 71.1502 222 71.1274 222.146 71.0819C222.293 71.0363 222.422 70.9702 222.533 70.8834C222.646 70.7945 222.738 70.6872 222.809 70.5614C222.883 70.4334 222.934 70.2892 222.962 70.1287L224.589 70.1385C224.561 70.4334 224.475 70.724 224.332 71.0103C224.191 71.2966 223.997 71.5579 223.749 71.7943C223.502 72.0285 223.201 72.215 222.845 72.3538C222.492 72.4926 222.086 72.562 221.628 72.562C221.026 72.562 220.485 72.4297 220.008 72.1651C219.533 71.8984 219.158 71.5102 218.883 71.0005C218.607 70.4909 218.47 69.8706 218.47 69.1398C218.47 68.4067 218.61 67.7854 218.889 67.2758C219.169 66.7661 219.548 66.379 220.025 66.1144C220.502 65.8498 221.036 65.7175 221.628 65.7175C222.032 65.7175 222.405 65.7739 222.747 65.8867C223.09 65.9973 223.392 66.1599 223.652 66.3746C223.912 66.5872 224.124 66.8485 224.286 67.1586C224.449 67.4688 224.55 67.8234 224.589 68.2224ZM225.292 67.1163V65.8086H230.923V67.1163H228.903V72.4709H227.316V67.1163H225.292ZM231.71 72.4709V65.8086H236.355V67.1163H233.32V68.4826H236.118V69.7936H233.32V71.1632H236.355V72.4709H231.71ZM239.826 72.4709H237.364V65.8086H239.823C240.502 65.8086 241.086 65.942 241.576 66.2087C242.069 66.4733 242.448 66.855 242.715 67.3538C242.982 67.8505 243.115 68.4447 243.115 69.1365C243.115 69.8305 242.982 70.4269 242.715 70.9257C242.45 71.4245 242.072 71.8073 241.58 72.0741C241.087 72.3386 240.503 72.4709 239.826 72.4709ZM238.974 71.0981H239.764C240.137 71.0981 240.453 71.0352 240.711 70.9095C240.971 70.7815 241.168 70.5744 241.3 70.2881C241.434 69.9997 241.502 69.6158 241.502 69.1365C241.502 68.6572 241.434 68.2755 241.3 67.9914C241.165 67.7052 240.967 67.4991 240.705 67.3733C240.444 67.2454 240.123 67.1814 239.742 67.1814H238.974V71.0981ZM208.891 82.4709H206.428V75.8086H208.888C209.566 75.8086 210.151 75.942 210.641 76.2087C211.133 76.4733 211.513 76.855 211.78 77.3538C212.046 77.8505 212.18 78.4447 212.18 79.1365C212.18 79.8305 212.046 80.4269 211.78 80.9257C211.515 81.4245 211.137 81.8073 210.644 82.0741C210.152 82.3386 209.568 82.4709 208.891 82.4709ZM208.039 81.0981H208.829C209.202 81.0981 209.518 81.0352 209.776 80.9095C210.036 80.7815 210.232 80.5744 210.365 80.2881C210.499 79.9997 210.566 79.6158 210.566 79.1365C210.566 78.6572 210.499 78.2755 210.365 77.9914C210.23 77.7052 210.032 77.4991 209.769 77.3733C209.509 77.2454 209.188 77.1814 208.806 77.1814H208.039V81.0981ZM214.167 82.4709H212.437L214.685 75.8086H216.828L219.076 82.4709H217.346L215.781 77.4872H215.729L214.167 82.4709ZM213.936 79.8489H217.554V81.0721H213.936V79.8489ZM218.744 77.1163V75.8086H224.375V77.1163H222.355V82.4709H220.767V77.1163H218.744ZM225.77 82.4709H224.04L226.288 75.8086H228.431L230.679 82.4709H228.949L227.384 77.4872H227.332L225.77 82.4709ZM225.539 79.8489H229.157V81.0721H225.539V79.8489Z" fill="#243F5F"/>
<path d="M95.1939 71.8632C95.2244 71.8327 95.2465 71.7949 95.2581 71.7533L95.9486 69.282C96.0014 69.0931 95.827 68.9187 95.6381 68.9715L93.1668 69.662C93.1253 69.6736 93.0874 69.6957 93.057 69.7262L71.0664 91.7168C71.0359 91.7473 71.0138 91.7852 71.0022 91.8267L70.3117 94.298C70.2589 94.4869 70.4333 94.6613 70.6222 94.6085L73.0935 93.918C73.135 93.9064 73.1729 93.8843 73.2034 93.8538L95.1939 71.8632Z" fill="#243F5F"/>
<path d="M178.305 71.8632C178.274 71.8327 178.252 71.7949 178.241 71.7533L177.55 69.282C177.497 69.0931 177.672 68.9187 177.861 68.9715L180.332 69.662C180.373 69.6736 180.411 69.6957 180.442 69.7262L202.432 91.7168C202.463 91.7473 202.485 91.7852 202.496 91.8267L203.187 94.298C203.24 94.4869 203.065 94.6613 202.876 94.6085L200.405 93.918C200.364 93.9064 200.326 93.8843 200.295 93.8538L178.305 71.8632Z" fill="#243F5F"/>
</svg>
