<?xml version="1.0" encoding="UTF-8"?>
<svg xmlns="http://www.w3.org/2000/svg" viewBox="0 0 860 300" width="860" height="300" font-family="-apple-system,BlinkMacSystemFont,'Segoe UI',Helvetica,Arial,sans-serif">
  <defs>
    <marker id="ah-int" markerWidth="9" markerHeight="8" refX="6.5" refY="3" orient="auto" markerUnits="strokeWidth">
      <path d="M0,0 L7,3 L0,6 Z" fill="#2f9e6b"/>
    </marker>
    <marker id="ah-priv" markerWidth="9" markerHeight="8" refX="6.5" refY="3" orient="auto" markerUnits="strokeWidth">
      <path d="M0,0 L7,3 L0,6 Z" fill="#d9742b"/>
    </marker>
    <style>.strong{fill:#1b2330}.muted{fill:#5b6675}</style>
  </defs>

  <!-- Peer's move: both guarantees land on anchor 2 -->
  <text x="126" y="16" text-anchor="end" font-size="10" font-weight="700" letter-spacing="1" class="muted">PEER'S MOVE</text>

  <line x1="140" y1="52" x2="140" y2="118" stroke="#2f9e6b" stroke-width="2" marker-end="url(#ah-int)"/>
  <text x="126" y="78" text-anchor="end" font-size="11.5" font-weight="700" fill="#2f9e6b">integrity: 1 &#8594; 2</text>
  <text x="126" y="93" text-anchor="end" font-size="10.5" class="muted">an upgrade</text>

  <line x1="140" y1="234" x2="140" y2="138" stroke="#d9742b" stroke-width="2" marker-end="url(#ah-priv)"/>
  <text x="126" y="182" text-anchor="end" font-size="11.5" font-weight="700" fill="#d9742b">privacy: 3 &#8594; 2</text>
  <text x="126" y="197" text-anchor="end" font-size="10.5" class="muted">a downgrade</text>

  <!-- Tier 1: operator -->
  <rect x="170" y="20" width="430" height="64" rx="10" fill="#ffffff" stroke="#c4453f" stroke-width="2"/>
  <circle cx="204" cy="52" r="15" fill="none" stroke="#c4453f" stroke-width="2"/>
  <text x="204" y="57" text-anchor="middle" font-size="14" font-weight="700" fill="#c4453f">1</text>
  <text x="232" y="47" font-size="14.5" font-weight="700" class="strong">An operator is honest</text>
  <text x="232" y="67" font-size="11.5" class="muted">trust: one operator's word</text>

  <!-- Tier 2: TEE -->
  <rect x="170" y="96" width="430" height="64" rx="10" fill="#ffffff" stroke="#d9742b" stroke-width="2"/>
  <circle cx="204" cy="128" r="15" fill="none" stroke="#d9742b" stroke-width="2"/>
  <text x="204" y="133" text-anchor="middle" font-size="14" font-weight="700" fill="#d9742b">2</text>
  <text x="232" y="123" font-size="14.5" font-weight="700" class="strong">This exact code ran in isolated hardware</text>
  <text x="232" y="143" font-size="11.5" class="muted">trust: a hardware vendor's signing key</text>

  <!-- Tier 3: structure -->
  <rect x="170" y="202" width="430" height="64" rx="10" fill="#ffffff" stroke="#2f9e6b" stroke-width="2"/>
  <circle cx="204" cy="234" r="15" fill="none" stroke="#2f9e6b" stroke-width="2"/>
  <text x="204" y="239" text-anchor="middle" font-size="14" font-weight="700" fill="#2f9e6b">3</text>
  <text x="232" y="229" font-size="14.5" font-weight="700" class="strong">It holds by construction, whoever ran it</text>
  <text x="232" y="249" font-size="11.5" class="muted">trust: no one; there is no secret to hold</text>

  <!-- bracket grouping tiers 1 and 2 -->
  <path d="M610,32 L616,32 L616,148 L610,148 M616,90 L624,90" fill="none" stroke="#9aa4b2" stroke-width="1.5"/>
  <text x="632" y="86" font-size="12" font-weight="700" class="strong">Same kind of trust</text>
  <text x="632" y="102" font-size="11" class="muted">a secret someone else holds</text>

  <!-- tier 3 callout -->
  <path d="M610,234 L624,234" fill="none" stroke="#9aa4b2" stroke-width="1.5"/>
  <text x="632" y="230" font-size="12" font-weight="700" fill="#2f9e6b">A different kind</text>
  <text x="632" y="246" font-size="11" class="muted">no secret to hold</text>
</svg>
