<svg width="1441" height="612" viewBox="0 0 1441 612" fill="none" xmlns="http://www.w3.org/2000/svg">
<path d="M0 154L1440.5 0V154V611.5H0V154Z" fill="#243F5F"/>
<mask id="mask0_1166_255" style="mask-type:alpha" maskUnits="userSpaceOnUse" x="0" y="0" width="1441" height="612">
<path d="M0 154L1440.5 0V154V611.5H0V154Z" fill="#243F5F"/>
</mask>
<g mask="url(#mask0_1166_255)">
<path d="M326 86V349H282.167V86H326Z" fill="#FAFBFC"/>
<path d="M238.333 86L238.333 349H194.5V86H238.333Z" fill="#FAFBFC"/>
<path d="M150.667 86L150.667 349H106.833L106.833 86H150.667Z" fill="#FAFBFC"/>
<path d="M63 349C63 421.625 121.875 480.5 194.5 480.5V349H63Z" fill="#B59963"/>
<path d="M326 349C326 421.625 267.125 480.5 194.5 480.5V349H326Z" fill="#A27F3C"/>
<path d="M326 612C326 539.375 267.125 480.5 194.5 480.5V612H326Z" fill="#B59963"/>
<path d="M63 612C63 539.375 121.875 480.5 194.5 480.5V612H63Z" fill="#A27F3C"/>
<path fill-rule="evenodd" clip-rule="evenodd" d="M589 217.5C589 290.125 530.125 349 457.5 349C384.875 349 326 290.125 326 217.5L391.75 217.5C391.75 253.813 421.187 283.25 457.5 283.25C493.813 283.25 523.25 253.813 523.25 217.5H589Z" fill="#B59963"/>
<path fill-rule="evenodd" clip-rule="evenodd" d="M589 217.5C589 144.875 530.125 86 457.5 86C384.875 86 326 144.875 326 217.5L391.75 217.5C391.75 181.187 421.187 151.75 457.5 151.75C493.813 151.75 523.25 181.187 523.25 217.5H589Z" fill="#A27F3C"/>
<path d="M326 349H589V436.667H326V349Z" fill="#FAFBFC"/>
<path d="M326 524.333H589V612H326V524.333Z" fill="#FAFBFC"/>
</g>
</svg>
