<?xml version="1.0" encoding="UTF-8"?>
<svg xmlns="http://www.w3.org/2000/svg" style="background: transparent; background-color: transparent; color-scheme: dark;" xmlns:xlink="http://www.w3.org/1999/xlink" version="1.1" width="746px" height="181px" viewBox="0 0 746 181"><defs/><g><g data-cell-id="0"><g data-cell-id="1"><g data-cell-id="pxRgrm9rSu1Rak3hgVQ9-1"><g transform="translate(0.5,0.5)"><path d="M 2.5 2.5 L 67.5 2.5 L 142.5 77.5 L 142.5 177.5 L 2.5 177.5 L 2.5 2.5 Z" fill="#f5f7fa" stroke="#37474f" stroke-width="5" stroke-miterlimit="10" pointer-events="all" style="fill: light-dark(rgb(245, 247, 250), rgb(24, 25, 28)); stroke: light-dark(rgb(55, 71, 79), rgb(167, 181, 188));"/><path d="M 67.5 2.5 L 67.5 77.5 L 142.5 77.5 Z" fill-opacity="0.05" fill="#000000" stroke="none" pointer-events="all" style="fill: light-dark(rgb(0, 0, 0), rgb(237, 237, 237));"/><path d="M 67.5 2.5 L 67.5 77.5 L 142.5 77.5" fill="none" stroke="#37474f" stroke-width="5" stroke-miterlimit="10" pointer-events="all" style="stroke: light-dark(rgb(55, 71, 79), rgb(167, 181, 188));"/></g></g><g data-cell-id="pxRgrm9rSu1Rak3hgVQ9-2"><g transform="translate(0.5,0.5)"/><g data-cell-id="pxRgrm9rSu1Rak3hgVQ9-3"><g transform="translate(0.5,0.5)"><path d="M 421.5 77.5 L 433.5 77.5 L 433.5 87 C 440.19 87.94 446.55 90.51 452 94.5 L 458.5 88 L 467 96.4 L 460.4 102.9 C 464.44 108.37 467.05 114.77 468 121.5 L 477.5 121.5 L 477.5 133.5 L 468 133.5 C 467.02 140.16 464.41 146.48 460.4 151.9 L 467 158.5 L 458.5 167 L 452 160.5 C 446.55 164.49 440.19 167.06 433.5 168 L 433.5 177.5 L 421.5 177.5 L 421.5 168 C 414.81 167.06 408.45 164.49 403 160.5 L 396.5 167 L 388 158.7 L 394.5 151.9 C 390.53 146.47 387.95 140.16 387 133.5 L 377.5 133.5 L 377.5 121.5 L 387 121.5 C 387.92 114.77 390.5 108.38 394.5 102.9 L 388 96.4 L 396.5 88 L 403 94.5 C 408.45 90.51 414.81 87.94 421.5 87 Z M 427.5 112.5 C 419.22 112.5 412.5 119.22 412.5 127.5 C 412.5 135.78 419.22 142.5 427.5 142.5 C 435.78 142.5 442.5 135.78 442.5 127.5 C 442.5 119.22 435.78 112.5 427.5 112.5 Z" fill="#f5f7fa" stroke="#0080f0" stroke-width="5" stroke-miterlimit="10" pointer-events="all" style="fill: light-dark(rgb(245, 247, 250), rgb(24, 25, 28)); stroke: light-dark(rgb(0, 128, 240), rgb(50, 160, 255));"/></g></g><g data-cell-id="pxRgrm9rSu1Rak3hgVQ9-4"><g transform="translate(0.5,0.5)"><path d="M 385.5 2.5 L 394.5 2.5 L 394.5 9.63 C 399.52 10.33 404.28 12.26 408.38 15.25 L 413.25 10.38 L 419.63 16.67 L 414.68 21.55 C 417.7 25.66 419.66 30.45 420.38 35.5 L 427.5 35.5 L 427.5 44.5 L 420.38 44.5 C 419.64 49.5 417.68 54.24 414.68 58.3 L 419.63 63.25 L 413.25 69.63 L 408.38 64.75 C 404.28 67.74 399.52 69.67 394.5 70.38 L 394.5 77.5 L 385.5 77.5 L 385.5 70.38 C 380.48 69.67 375.72 67.74 371.63 64.75 L 366.75 69.63 L 360.38 63.4 L 365.25 58.3 C 362.27 54.23 360.34 49.49 359.63 44.5 L 352.5 44.5 L 352.5 35.5 L 359.63 35.5 C 360.32 30.46 362.25 25.66 365.25 21.55 L 360.38 16.67 L 366.75 10.38 L 371.63 15.25 C 375.72 12.26 380.48 10.33 385.5 9.63 Z M 390 28.75 C 383.79 28.75 378.75 33.79 378.75 40 C 378.75 46.21 383.79 51.25 390 51.25 C 396.21 51.25 401.25 46.21 401.25 40 C 401.25 33.79 396.21 28.75 390 28.75 Z" fill="#f5f7fa" stroke="#0080f0" stroke-width="5" stroke-miterlimit="10" pointer-events="all" style="fill: light-dark(rgb(245, 247, 250), rgb(24, 25, 28)); stroke: light-dark(rgb(0, 128, 240), rgb(50, 160, 255));"/></g></g><g data-cell-id="pxRgrm9rSu1Rak3hgVQ9-5"><g transform="translate(0.5,0.5)"><path d="M 332.5 52.5 L 347.5 52.5 L 347.5 64.38 C 355.86 65.55 363.81 68.77 370.63 73.75 L 378.75 65.63 L 389.38 76.13 L 381.13 84.25 C 386.17 91.09 389.44 99.08 390.63 107.5 L 402.5 107.5 L 402.5 122.5 L 390.63 122.5 C 389.4 130.83 386.13 138.73 381.13 145.5 L 389.38 153.75 L 378.75 164.38 L 370.63 156.25 C 363.81 161.23 355.86 164.45 347.5 165.63 L 347.5 177.5 L 332.5 177.5 L 332.5 165.63 C 324.14 164.45 316.19 161.23 309.38 156.25 L 301.25 164.38 L 290.63 154 L 298.75 145.5 C 293.79 138.72 290.57 130.82 289.38 122.5 L 277.5 122.5 L 277.5 107.5 L 289.38 107.5 C 290.53 99.09 293.75 91.1 298.75 84.25 L 290.63 76.13 L 301.25 65.63 L 309.38 73.75 C 316.19 68.77 324.14 65.55 332.5 64.38 Z M 340 96.25 C 329.64 96.25 321.25 104.64 321.25 115 C 321.25 125.36 329.64 133.75 340 133.75 C 350.36 133.75 358.75 125.36 358.75 115 C 358.75 104.64 350.36 96.25 340 96.25 Z" fill="#f5f7fa" stroke="#0080f0" stroke-width="5" stroke-miterlimit="10" pointer-events="all" style="fill: light-dark(rgb(245, 247, 250), rgb(24, 25, 28)); stroke: light-dark(rgb(0, 128, 240), rgb(50, 160, 255));"/></g></g></g><g data-cell-id="pxRgrm9rSu1Rak3hgVQ9-6"><g transform="translate(0.5,0.5)"><path d="M 602.5 2.5 L 667.5 2.5 L 742.5 77.5 L 742.5 177.5 L 602.5 177.5 L 602.5 2.5 Z" fill="#f5f7fa" stroke="#37474f" stroke-width="5" stroke-miterlimit="10" pointer-events="all" style="fill: light-dark(rgb(245, 247, 250), rgb(24, 25, 28)); stroke: light-dark(rgb(55, 71, 79), rgb(167, 181, 188));"/><path d="M 667.5 2.5 L 667.5 77.5 L 742.5 77.5 Z" fill-opacity="0.05" fill="#000000" stroke="none" pointer-events="all" style="fill: light-dark(rgb(0, 0, 0), rgb(237, 237, 237));"/><path d="M 667.5 2.5 L 667.5 77.5 L 742.5 77.5" fill="none" stroke="#37474f" stroke-width="5" stroke-miterlimit="10" pointer-events="all" style="stroke: light-dark(rgb(55, 71, 79), rgb(167, 181, 188));"/></g></g><g data-cell-id="pxRgrm9rSu1Rak3hgVQ9-7"><g transform="translate(0.5,0.5)"><path d="M 180 103.15 L 180 75.65 L 200 75.65 L 200 48.15 L 250 89.4 L 200 130.65 L 200 103.15 Z" fill="#ffffff" stroke="#37474f" stroke-width="5" stroke-linejoin="round" stroke-miterlimit="10" pointer-events="all" style="fill: light-dark(#ffffff, var(--ge-dark-color, #121212)); stroke: light-dark(rgb(55, 71, 79), rgb(167, 181, 188));"/></g></g><g data-cell-id="mvJ3t36R3eZFR9wTXyMD-1"><g transform="translate(0.5,0.5)"><path d="M 505 103.15 L 505 75.65 L 525 75.65 L 525 48.15 L 575 89.4 L 525 130.65 L 525 103.15 Z" fill="#ffffff" stroke="#37474f" stroke-width="5" stroke-linejoin="round" stroke-miterlimit="10" pointer-events="all" style="fill: light-dark(#ffffff, var(--ge-dark-color, #121212)); stroke: light-dark(rgb(55, 71, 79), rgb(167, 181, 188));"/></g></g></g></g></g></svg>