<svg width="800" height="400" viewBox="0 0 800 400" fill="none" xmlns="http://www.w3.org/2000/svg">
  <rect width="800" height="400" fill="#F9FAFB"/>
  
  <rect x="40" y="60" width="280" height="280" rx="12" fill="white" stroke="#374151" stroke-width="2"/>
  <text x="60" y="45" font-family="Arial, sans-serif" font-size="16" font-weight="bold" fill="#111827">EXISTING WEBSITES</text>
  <text x="60" y="90" font-family="Arial, sans-serif" font-size="12" font-style="italic" fill="#6B7280">User's Data</text>
  
  <rect x="60" y="110" width="240" height="200" rx="8" stroke="#D1D5DB" stroke-dasharray="4 4"/>
  <text x="80" y="145" font-family="monospace" font-size="13" fill="#374151">● Banking</text>
  <text x="80" y="175" font-family="monospace" font-size="13" fill="#374151">● E-commerce</text>
  <text x="80" y="205" font-family="monospace" font-size="13" fill="#374151">● Social Media</text>
  <text x="80" y="235" font-family="monospace" font-size="13" fill="#374151">● Gov Portals</text>
  <text x="80" y="265" font-family="monospace" font-size="13" fill="#374151">● Healthcare</text>

  <circle cx="400" cy="80" r="20" fill="#E5E7EB" stroke="#374151" stroke-width="2"/>
  <path d="M380 130 C380 110 420 110 420 130" stroke="#374151" stroke-width="2" fill="none"/>
  <text x="400" y="50" text-anchor="middle" font-family="Arial, sans-serif" font-size="14" font-weight="bold" fill="#111827">User</text>

  <rect x="340" y="180" width="120" height="40" rx="4" fill="#111827"/>
  <text x="400" y="205" text-anchor="middle" font-family="Arial, sans-serif" font-size="14" font-weight="bold" fill="white">TLSNotary</text>
  <path d="M320 200 L335 200 M465 200 L480 200" stroke="#374151" stroke-width="2" marker-end="url(#arrow)"/>
  
  <rect x="480" y="60" width="280" height="280" rx="12" fill="white" stroke="#374151" stroke-width="2"/>
  <text x="500" y="45" font-family="Arial, sans-serif" font-size="16" font-weight="bold" fill="#111827">YOUR APP</text>
  <text x="500" y="90" font-family="Arial, sans-serif" font-size="12" font-style="italic" fill="#6B7280">Verified Data</text>

  <rect x="500" y="110" width="240" height="200" rx="8" stroke="#D1D5DB" fill="#F3F4F6"/>
  <text x="520" y="145" font-family="monospace" font-size="13" fill="#059669">✓ Proof of identity</text>
  <text x="520" y="175" font-family="monospace" font-size="13" fill="#059669">✓ Account balance</text>
  <text x="520" y="205" font-family="monospace" font-size="13" fill="#059669">✓ Account ownership</text>

  <line x1="40" y1="370" x2="760" y2="370" stroke="#D1D5DB" stroke-width="1"/>
  <text x="180" y="390" text-anchor="middle" font-family="Arial, sans-serif" font-size="11" fill="#6B7280">no changes required</text>
  <text x="400" y="390" text-anchor="middle" font-family="Arial, sans-serif" font-size="11" fill="#6B7280">user-controlled privacy</text>
  <text x="620" y="390" text-anchor="middle" font-family="Arial, sans-serif" font-size="11" fill="#6B7280">no central middleman</text>

  <defs>
    <marker id="arrow" markerWidth="10" markerHeight="10" refX="9" refY="5" orientation="auto">
      <path d="M0,0 L0,10 L9,5 z" fill="#374151" />
    </marker>
  </defs>
</svg>